<?xml version="1.0" encoding="UTF-8" standalone="no"?>
<svg
   xmlns:dc="http://purl.org/dc/elements/1.1/"
   xmlns:cc="http://creativecommons.org/ns#"
   xmlns:rdf="http://www.w3.org/1999/02/22-rdf-syntax-ns#"
   xmlns:svg="http://www.w3.org/2000/svg"
   xmlns="http://www.w3.org/2000/svg"
   xmlns:sodipodi="http://sodipodi.sourceforge.net/DTD/sodipodi-0.dtd"
   xmlns:inkscape="http://www.inkscape.org/namespaces/inkscape"
   id="b4e67b16-eb74-42a6-b922-9d4e1a643c89"
   data-name="Layer 1"
   width="360"
   height="280"
   viewBox="0 0 360 280.00001"
   version="1.1"
   sodipodi:docname="undraw-result-shorty.svg"
   inkscape:version="0.92.4 (5da689c313, 2019-01-14)"
   inkscape:export-filename="/home/victor/npq/github.victorparmar/shorty/public/images/undraw-result-shorty.png"
   inkscape:export-xdpi="96.019997"
   inkscape:export-ydpi="96.019997">
  <metadata
     id="metadata87">
    <rdf:RDF>
      <cc:Work
         rdf:about="">
        <dc:format>image/svg+xml</dc:format>
        <dc:type
           rdf:resource="http://purl.org/dc/dcmitype/StillImage" />
        <dc:title>result</dc:title>
      </cc:Work>
    </rdf:RDF>
  </metadata>
  <defs
     id="defs85" />
  <sodipodi:namedview
     pagecolor="#ffffff"
     bordercolor="#666666"
     borderopacity="1"
     objecttolerance="10"
     gridtolerance="10"
     guidetolerance="10"
     inkscape:pageopacity="0"
     inkscape:pageshadow="2"
     inkscape:window-width="1398"
     inkscape:window-height="746"
     id="namedview83"
     showgrid="false"
     inkscape:zoom="1"
     inkscape:cx="182"
     inkscape:cy="141.18442"
     inkscape:window-x="42"
     inkscape:window-y="27"
     inkscape:window-maximized="1"
     inkscape:current-layer="b4e67b16-eb74-42a6-b922-9d4e1a643c89" />
  <title
     id="title2">result</title>
  <g
     id="g68717"
     transform="matrix(0.3347547,0,0,0.3347547,6.5970654,154.12143)"
     style="stroke-width:2.98726225">
    <path
       style="fill:#f2f2f2;stroke-width:2.98726225"
       inkscape:connector-curvature="0"
       id="path4"
       d="m 678.3971,-434.36884 -188.81087,210.7343 A 93.59629,93.59629 0 1 1 364.98448,-84.564805 L 101.98192,208.97586 a 431.11734,431.11734 0 0 0 265.19837,90.715 c 239.14941,0 433.01786,-193.86875 433.01786,-433.01785 A 431.55472,431.55472 0 0 0 678.3971,-434.36884 Z" />
    <circle
       style="fill:#f2f2f2;stroke-width:2.98726225"
       id="circle6"
       r="56.492699"
       cy="-144.86285"
       cx="435.41672" />
    <rect
       style="fill:#3f3d56;stroke-width:2.98726225"
       id="rect8"
       height="388.91696"
       width="617.22852"
       y="-39.976624"
       x="95.567757" />
    <path
       style="fill:#2f2e41;stroke-width:2.98726225"
       inkscape:connector-curvature="0"
       id="path10"
       d="m 773.44477,-232.76641 c 0,0 -39.78248,-1.6128 -40.85768,39.24488 -1.0752,40.85768 0,75.80175 0,75.80175 h 79.565 v -73.65131 c 0,0 -1.61284,-38.70732 -38.70732,-41.39532 z" />
    <path
       style="fill:#ffb9b9;stroke-width:2.98726225"
       inkscape:connector-curvature="0"
       id="path12"
       d="m 757.91584,-159.95149 c 0,0 2.36184,26.76756 -5.511,29.12941 -7.87284,2.36185 3.14912,36.214945 3.14912,36.214945 l 31.49125,7.08553 18.10747,-36.214945 -7.87278,-10.23466 c 0,0 -13.38378,-18.10747 -7.08553,-30.704 6.29825,-12.59653 -32.27853,4.72372 -32.27853,4.72372 z" />
    <path
       style="opacity:0.1;stroke-width:2.98726225"
       inkscape:connector-curvature="0"
       id="path14"
       d="m 757.91584,-159.95149 c 0,0 2.36184,26.76756 -5.511,29.12941 -7.87284,2.36185 3.14912,36.214945 3.14912,36.214945 l 31.49125,7.08553 18.10747,-36.214945 -7.87278,-10.23466 c 0,0 -13.38378,-18.10747 -7.08553,-30.704 6.29825,-12.59653 -32.27853,4.72372 -32.27853,4.72372 z" />
    <circle
       style="fill:#ffb9b9;stroke-width:2.98726225"
       id="circle16"
       r="30.70397"
       cy="-178.05896"
       cx="768.93774" />
    <path
       style="fill:#ffb9b9;stroke-width:2.98726225"
       inkscape:connector-curvature="0"
       id="path18"
       d="m 649.271,-72.563265 c 0,0 -18.89475,14.17107 -13.38378,25.193 5.51097,11.02193 22.04387,48.8114396 22.04387,48.8114396 0,0 3.14913,29.1294104 16.53291,27.5548504 13.38378,-1.57456 0,-30.7040004 0,-30.7040004 l -16.53291,-44.8749996 5.511,-8.6601 z" />
    <path
       style="fill:#ffb9b9;stroke-width:2.98726225"
       inkscape:connector-curvature="0"
       id="path20"
       d="m 904.35016,-67.839575 c 0,0 21.25654,16.53291 8.66009,22.83116 -12.5965,6.29825 -66.13163,36.2149396 -66.13163,36.2149396 0,0 -32.27853,24.4057204 -36.21494,5.511 -3.93641,-18.8947196 21.2566,-18.1074696 21.2566,-18.1074696 0,0 50.386,-30.704 52.74784,-37.00222 2.36184,-6.29822 19.68204,-9.44741 19.68204,-9.44741 z" />
    <path
       style="fill:#575a89;stroke-width:2.98726225"
       inkscape:connector-curvature="0"
       id="path22"
       d="m 716.97721,40.017965 c 0,0 -10.23466,55.897 -4.72369,87.388215 a 155.82721,155.82721 0 0 1 -1.57456,59.0461 l 30.704,3.14912 c 0,0 19.682,-116.517625 30.704,-115.730345 11.022,0.78728 34.64038,117.304915 34.64038,117.304915 l 33.06581,-4.72369 c 0,0 -10.23466,-51.96057 -5.511,-67.70619 4.72366,-15.74562 1.57456,-72.429875 -10.23465,-78.728125 -11.80921,-6.29825 -107.07029,0 -107.07029,0 z" />
    <path
       style="fill:#2f2e41;stroke-width:2.98726225"
       inkscape:connector-curvature="0"
       id="path24"
       d="m 744.53205,186.45228 c 0,0 -35.42765,-11.80922 -38.57678,-3.14913 -3.14913,8.66009 -2.36184,105.4957 -1.57456,111.794 0.78728,6.2983 3.14912,3.14912 0.78728,6.29825 -2.36184,3.14913 -2.36184,-3.93641 -1.57456,4.72368 0.78728,8.66009 1.57457,10.23461 1.57457,10.23461 0,0 -14.17106,33.06581 11.02194,32.27853 25.193,-0.78728 13.38378,-24.40572 13.38378,-24.40572 0,0 3.93641,-7.08553 1.57456,-11.02193 -2.36185,-3.9364 -3.14912,-10.23466 0,-13.38379 3.14912,-3.14913 -3.14912,-9.44737 -3.9364,-11.80922 -0.78728,-2.36185 -3.14913,-1.57456 3.14912,-9.44737 6.29825,-7.87281 3.14913,-11.80922 2.36185,-14.17106 -0.78728,-2.36184 5.511,-16.53291 5.511,-16.53291 z" />
    <path
       style="fill:#2f2e41;stroke-width:2.98726225"
       inkscape:connector-curvature="0"
       id="path26"
       d="m 804.36543,186.45228 c 0,0 35.42766,-11.80922 38.57679,-3.14913 3.14913,8.66009 2.36184,105.4957 1.57456,111.794 -0.78728,6.2983 -3.14913,3.14912 -0.78728,6.29825 2.36185,3.14913 2.36184,-3.93641 1.57456,4.72368 -0.78728,8.66009 -1.57456,10.23466 -1.57456,10.23466 0,0 14.17106,33.06581 -11.02194,32.27853 -25.193,-0.78728 -13.38378,-24.40572 -13.38378,-24.40572 0,0 -3.93641,-7.08553 -1.57457,-11.02193 2.36184,-3.9364 3.14913,-10.23466 0,-13.38379 -3.14913,-3.14913 3.14913,-9.44737 3.93641,-11.80922 0.78728,-2.36185 3.14913,-1.57456 -3.14912,-9.44737 -6.29825,-7.87281 -3.14913,-11.80922 -2.36185,-14.17106 0.78728,-2.36184 -5.511,-16.53291 -5.511,-16.53291 z" />
    <path
       style="fill:#00d1b2;stroke-width:2.98726225"
       inkscape:connector-curvature="0"
       id="path28"
       d="m 770.51234,-105.62908 c 0,0 -5.511,-16.53291 -8.6601,-19.682 -3.1491,-3.14909 -5.19241,-11.29824 -5.19241,-11.29824 0,0 -17.63874,6.57455 -22.36243,8.14911 -4.72369,1.57456 -20.46932,1.57456 -20.46932,3.93641 v 50.386005 c 0,0 -1.57456,10.23466 1.57457,36.21494 3.14913,25.98028 12.5965,41.7259096 1.57456,52.74785 -11.02194,11.02194 -1.57456,37.7895 3.93641,42.51319 5.51097,4.72369 112.58122,29.1294 113.3685,-28.34213 0,0 -25.98028,-45.66232 -14.95834,-60.62066 11.02194,-14.95834 20.46931,-40.15135 20.46931,-40.15135 v -50.386005 c 0,0 -17.32019,-5.511 -22.83116,-6.29825 -5.51097,-0.78725 -18.89475,-15.74562 -20.46931,-14.95834 -1.57456,0.78728 -4.61732,-0.03 -4.61732,-0.03 l -0.10637,11.05194 z" />
    <path
       style="fill:#00d1b2;stroke-width:2.98726225"
       inkscape:connector-curvature="0"
       id="path30"
       d="m 724.85,-120.58741 -11.02194,-3.9364 c 0,0 -13.38378,7.08553 -13.38378,8.66009 0,1.57456 -7.87281,8.6601 -11.80922,11.80922 -3.93641,3.14912 -14.95834,3.93641 -14.95834,5.511005 0,1.57459 -34.64038,26.76756 -31.49125,30.704 3.14913,3.93644 13.38378,18.10747 18.89475,18.10747 5.51097,0 18.89478,-14.17114 21.25661,-14.95838 2.36183,-0.78724 26.76757,-15.74563 34.64038,-13.38379 7.87281,2.36184 7.87279,-42.513215 7.87279,-42.513215 z" />
    <path
       style="fill:#00d1b2;stroke-width:2.98726225"
       inkscape:connector-curvature="0"
       id="path32"
       d="m 824.83475,-119.01286 14.95834,-3.14913 c 0,0 28.34213,21.2566 29.12941,22.04388 0.78728,0.787285 44.875,29.129415 42.51319,34.640375 -2.36181,5.51096 -27.55485,13.38379 -33.8531,11.02194 -6.29825,-2.36185 -33.06581,-22.04387 -43.30047,-19.682 -10.23466,2.36187 -9.44737,-44.875065 -9.44737,-44.875065 z" />
    <path
       style="fill:#2f2e41;stroke-width:2.98726225"
       inkscape:connector-curvature="0"
       id="path34"
       d="m 801.61,-187.89998 c 3.73766,-15.69816 2.20928,-19.868 2.20928,-19.868 l -47.84649,-11.82722 -16.66563,16.128 v 16.66564 l 1.68218,5.19975 c 0,0 6.91943,-5.19975 4.23143,-12.72617 -5e-5,8e-5 53.70117,17.71763 56.38923,6.428 z" />
    <path
       style="fill:#2f2e41;stroke-width:2.98726225"
       inkscape:connector-curvature="0"
       id="path36"
       d="m 802.206,-196.68722 -4.53249,4.85084 c 7.14858,0.0865 -2.3728,57.61624 0.78728,66.91891 l 11.80922,0.2688 v -76.63122 z" />
    <ellipse
       style="fill:#ffb9b9;stroke-width:2.98726225"
       id="ellipse38"
       ry="5.1173301"
       rx="2.36184"
       cy="-182.78264"
       cx="739.41473" />
    <ellipse
       style="fill:#ffb9b9;stroke-width:2.98726225"
       id="ellipse40"
       ry="5.1173301"
       rx="2.36184"
       cy="-182.78264"
       cx="800.0354" />
    <polygon
       transform="translate(0,-434.36884)"
       style="fill:#2f2e41;stroke-width:2.98726225"
       id="polygon42"
       points="371.293,693.339 432.086,632.546 378.293,578.753 379.707,577.339 434.914,632.546 372.707,694.753 " />
    <circle
       style="fill:#00d1b2;stroke-width:2.98726225"
       id="circle44"
       r="21"
       cy="198.67676"
       cx="430" />
    <circle
       style="fill:#00d1b2;stroke-width:2.98726225"
       id="circle46"
       r="21"
       cy="259.67676"
       cx="375" />
    <polygon
       transform="translate(0,-434.36884)"
       style="fill:#2f2e41;stroke-width:2.98726225"
       id="polygon48"
       points="375.293,577.339 436.086,516.546 382.293,462.753 383.707,461.339 438.914,516.546 376.707,578.753 " />
    <circle
       style="fill:#00d1b2;stroke-width:2.98726225"
       id="circle50"
       r="21"
       cy="27.676758"
       cx="383" />
    <circle
       style="fill:#00d1b2;stroke-width:2.98726225"
       id="circle52"
       r="21"
       cy="82.676758"
       cx="434" />
    <circle
       style="fill:#00d1b2;stroke-width:2.98726225"
       id="circle54"
       r="21"
       cy="143.67676"
       cx="379" />
    <rect
       style="opacity:0.3;fill:#00d1b2;stroke-width:2.98726225"
       id="rect56"
       height="19"
       width="104"
       y="-15.323242"
       x="123" />
    <rect
       style="opacity:0.3;fill:#00d1b2;stroke-width:2.98726225"
       id="rect58"
       height="5"
       width="104"
       y="199.67676"
       x="538" />
    <rect
       style="opacity:0.3;fill:#00d1b2;stroke-width:2.98726225"
       id="rect60"
       height="5"
       width="104"
       y="214.67676"
       x="538" />
    <rect
       style="opacity:0.3;fill:#00d1b2;stroke-width:2.98726225"
       id="rect62"
       height="5"
       width="104"
       y="229.67676"
       x="538" />
    <rect
       style="opacity:0.3;fill:#00d1b2;stroke-width:2.98726225"
       id="rect64"
       height="5"
       width="104"
       y="244.67676"
       x="538" />
    <rect
       style="opacity:0.3;fill:#00d1b2;stroke-width:2.98726225"
       id="rect66"
       height="5"
       width="104"
       y="259.67676"
       x="538" />
    <rect
       style="opacity:0.3;fill:#00d1b2;stroke-width:2.98726225"
       id="rect68"
       height="5"
       width="104"
       y="274.67676"
       x="538" />
    <path
       style="fill:#3f3d56;stroke-width:2.98726225"
       inkscape:connector-curvature="0"
       id="path70"
       d="m 66.758,308.61293 c 6.914,25.55823 30.59594,41.38709 30.59594,41.38709 0,0 12.47217,-25.60923 5.55818,-51.16746 -6.91399,-25.55823 -30.59593,-41.38709 -30.59593,-41.38709 0,0 -12.47219,25.60923 -5.55819,51.16746 z" />
    <path
       style="fill:#00d1b2;stroke-width:2.98726225"
       inkscape:connector-curvature="0"
       id="path72"
       d="m 76.91757,303.12019 c 18.97207,18.46854 21.28937,46.859 21.28937,46.859 0,0 -28.4425,-1.553 -47.41457,-20.02152 -18.97207,-18.46852 -21.28937,-46.859 -21.28937,-46.859 0,0 28.4425,1.55298 47.41457,20.02152 z" />
    <rect
       style="fill:#3f3d56;stroke-width:2.98726225"
       x="0"
       id="rect74"
       height="2"
       width="1036"
       y="347.67676" />
    <path
       style="fill:#3f3d56;stroke-width:2.98726225"
       inkscape:connector-curvature="0"
       id="path76"
       d="m 978.5,286.15373 a 22.03135,22.03135 0 0 0 -14.0311,-20.5 22,22 0 1 0 -15.9378,0 21.99119,21.99119 0 0 0 0,41 22,22 0 1 0 15.9378,0 22.03136,22.03136 0 0 0 14.0311,-20.5 z m -42,-41 a 20,20 0 1 1 24.5129,19.46734 22.02362,22.02362 0 0 0 -9.0258,0 A 20.02093,20.02093 0 0 1 936.5,245.15373 Z m 40,82 a 20,20 0 1 1 -24.5129,-19.46735 22.02316,22.02316 0 0 0 9.0258,0 20.02094,20.02094 0 0 1 15.4871,19.46735 z m -15.4871,-21.53266 a 22.02362,22.02362 0 0 0 -9.0258,0 19.97883,19.97883 0 0 1 0,-38.93469 22.02316,22.02316 0 0 0 9.0258,0 19.97883,19.97883 0 0 1 0,38.93469 z" />
    <path
       style="fill:#3f3d56;stroke-width:2.98726225"
       inkscape:connector-curvature="0"
       id="path78"
       d="m 106.5,-77.846275 a 22,22 0 1 1 22,-22 22.02489,22.02489 0 0 1 -22,22 z m 0,-42.000005 a 20,20 0 1 0 20,20.000005 20.02229,20.02229 0 0 0 -20,-20.000005 z" />
    <path
       style="fill:#3f3d56;stroke-width:2.98726225"
       inkscape:connector-curvature="0"
       id="path80"
       d="m 573.5,-296.84628 a 22,22 0 1 1 22,-22 22.02489,22.02489 0 0 1 -22,22 z m 0,-42 a 20,20 0 1 0 20,20 20.02229,20.02229 0 0 0 -20,-20 z" />
  </g>
</svg>
