<?xml version="1.0" encoding="UTF-8" standalone="no"?>
<svg
   xmlns:dc="http://purl.org/dc/elements/1.1/"
   xmlns:cc="http://creativecommons.org/ns#"
   xmlns:rdf="http://www.w3.org/1999/02/22-rdf-syntax-ns#"
   xmlns:svg="http://www.w3.org/2000/svg"
   xmlns="http://www.w3.org/2000/svg"
   xmlns:sodipodi="http://sodipodi.sourceforge.net/DTD/sodipodi-0.dtd"
   xmlns:inkscape="http://www.inkscape.org/namespaces/inkscape"
   id="a5349118-8809-40c5-ab34-fa23ee5ede74"
   data-name="Layer 1"
   width="100"
   height="100"
   viewBox="0 0 100 100"
   version="1.1"
   sodipodi:docname="logo.svg"
   inkscape:version="0.92.4 (5da689c313, 2019-01-14)"
   inkscape:export-filename="/home/parmarv/npq/github.wheresvic/shorty/res/logo/logo.png"
   inkscape:export-xdpi="96"
   inkscape:export-ydpi="96">
  <metadata
     id="metadata55">
    <rdf:RDF>
      <cc:Work
         rdf:about="">
        <dc:format>image/svg+xml</dc:format>
        <dc:type
           rdf:resource="http://purl.org/dc/dcmitype/StillImage" />
        <dc:title>link</dc:title>
      </cc:Work>
    </rdf:RDF>
  </metadata>
  <defs
     id="defs53" />
  <sodipodi:namedview
     pagecolor="#ffffff"
     bordercolor="#666666"
     borderopacity="1"
     objecttolerance="10"
     gridtolerance="10"
     guidetolerance="10"
     inkscape:pageopacity="0"
     inkscape:pageshadow="2"
     inkscape:window-width="1870"
     inkscape:window-height="983"
     id="namedview51"
     showgrid="false"
     inkscape:zoom="2.6944092"
     inkscape:cx="70.94552"
     inkscape:cy="65.933317"
     inkscape:window-x="1970"
     inkscape:window-y="27"
     inkscape:window-maximized="1"
     inkscape:current-layer="a5349118-8809-40c5-ab34-fa23ee5ede74" />
  <title
     id="title2">link</title>
  <g
     id="g864"
     transform="matrix(0.50697879,0,0,0.50697879,-105.13347,-157.45983)">
    <path
       id="path44"
       transform="translate(-219.5,-99.64489)"
       d="m 554.59811,528.43759 q -1.25967,0.794 -2.60744,1.47382 A 30.87649,30.87649 0 0 1 510.5644,516.26208 l -6.65209,-13.19072 4.465,-2.251 6.65209,13.19073 a 25.84163,25.84163 0 1 0 46.14646,-23.27365 L 533.23948,435.34387 A 25.841628,25.841628 0 1 0 487.093,458.61749 l 9.89088,19.612 -4.465,2.251 -9.89088,-19.61197 a 30.84193,30.84193 0 0 1 55.07639,-27.7757 l 27.93637,55.39356 a 30.84665,30.84665 0 0 1 -11.04267,39.95121 z"
       inkscape:connector-curvature="0"
       style="fill:#3f3d56" />
    <path
       id="path46"
       transform="translate(-219.5,-99.64489)"
       d="m 557.3,596.80949 q -1.24231,0.783 -2.57748,1.45725 a 30.87615,30.87615 0 0 1 -41.42627,-13.64933 l -27.93638,-55.39356 a 30.841931,30.841931 0 0 1 55.07639,-27.77571 L 547.77488,516 l -4.465,2.251 -7.33863,-14.55188 a 25.841622,25.841622 0 1 0 -46.14645,23.27365 l 27.93637,55.39356 a 25.84163,25.84163 0 1 0 46.14646,-23.27365 l -9.61614,-19.0671 4.465,-2.251 9.61614,19.0671 A 30.88584,30.88584 0 0 1 557.3,596.80949 Z"
       inkscape:connector-curvature="0"
       style="fill:#3f3d56" />
  </g>
</svg>
